# xmcd
#
# Track frame offsets: 
#        150
#        24150
#        42150
#        59325
#        76125
#        99300
#        117513
#        133337
#        146986
#        169146
#        191420
#        209695
#        227019
#        246744
#        263649
#
# Disc length: 3658 seconds
#
# Revision: 4
# Processed by: cddbd v1.5.2PL0 Copyright (c) Steve Scherf et al.
# Submitted via: ExactAudioCopy v0.99pb5
#
DISCID=da0e480f
DTITLE=Stefie Shock - Tubes, remixes et prémonitions
DYEAR=2009
DGENRE=Techno
TTITLE0=Panicomanie (Édition album - Radio)
TTITLE1=Comme géminés (Vamp mix)
TTITLE2=Scalpel blues
TTITLE3=Tout le monde est triste
TTITLE4=La jungle (Le cosmic mix)
TTITLE5=Je te réchaufferai
TTITLE6=Je combats le spleen
TTITLE7=Salut Chantal (Old school disco mix)
TTITLE8=Ange gardien (Cosmo Palermo drum mix)
TTITLE9=Un homme à la mer - Hombre al agua
TTITLE10=Pixels flous
TTITLE11=Savoure le rouge
TTITLE12=Le mile high club (Bluefish mix)
TTITLE13=L'amour dans le désert (Montuno, baby)
TTITLE14=Le moustique
EXTD=
EXTT0=Paroles et musique de Stefie Shock
EXTT1=Paroles et musique de Stefie Shock
EXTT2=Paroles et musique de Stefie Shock
EXTT3=Paroles et musique de Stefie Shock
EXTT4=Paroles et musique de Stefie Shock
EXTT5=Paroles et musique de Charles Aznavour
EXTT6=Paroles et musique de Stefie Shock
EXTT7=Paroles de Stefie Shock et David gaudreau - musique de Stefie Sh
EXTT7=ock et David Gaudreau
EXTT8=Paroles de Stefie Shock - musique de Stefie Shock et Mathieu Dan
EXTT8=durand
EXTT9=Paroles et musique de Stefie Shock
EXTT10=Paroles de Michel Brunelle - musique de Stefie Shock
EXTT11=Paroles de Nicolas Sirchis - musique de Dominique Maurice Nicol
EXTT11=as - arrangements de Philippe Eidel
EXTT12=Paroles et musique de Stefie Shock
EXTT13=Paroles et musique de Stefie Shock
EXTT14=Krieger - Densmore - adaptation par R. Dassin, C. Lemesle
PLAYORDER=
